<?xml version="1.0" encoding="UTF-8" standalone="no"?>
<!-- Created with Inkscape (http://www.inkscape.org/) -->

<svg
   xmlnsDc="http://purl.org/dc/elements/1.1/"
   xmlnsCc="http://creativecommons.org/ns#"
   xmlnsRdf="http://www.w3.org/1999/02/22-rdf-syntax-ns#"
   xmlnsSvg="http://www.w3.org/2000/svg"
   xmlns="http://www.w3.org/2000/svg"
   xmlnsSodipodi="http://sodipodi.sourceforge.net/DTD/sodipodi-0.dtd"
   xmlnsInkscape="http://www.inkscape.org/namespaces/inkscape"
   version="1.1"
   id="svg22495"
   xmlSpace="preserve"
   width="666.66669"
   height="666.66669"
   viewBox="0 0 666.66669 666.66669"
   sodipodiDocname="organic-products-publicdomainvectors.org.svg"
   inkscapeVersion="0.92.4 (5da689c313, 2019-01-14)"><metadata
     id="metadata22501"><rdf:RDF><cc:Work
         rdf:about=""><dc:format>image/svg+xml</dc:format><dc:type
           rdf:resource="http://purl.org/dc/dcmitype/StillImage" /><dc:title></dc:title></cc:Work></rdf:RDF></metadata><defs
     id="defs22499"><clipPath
       clipPathUnits="userSpaceOnUse"
       id="clipPath22511"><path
         d="M 0,500 H 500 V 0 H 0 Z"
         id="path22509"
         inkscape:connector-curvature="0" /></clipPath><clipPath
       clipPathUnits="userSpaceOnUse"
       id="clipPath22581"><path
         d="M 234.513,297.736 H 246.96 V 163.687 h -12.447 z"
         id="path22579"
         inkscape:connector-curvature="0" /></clipPath><clipPath
       clipPathUnits="userSpaceOnUse"
       id="clipPath22595"><path
         d="m 280.581,351.32 h 12.447 V 148.496 h -12.447 z"
         id="path22593"
         inkscape:connector-curvature="0" /></clipPath></defs><sodipodi:namedview
     pagecolor="#ffffff"
     bordercolor="#666666"
     borderopacity="1"
     objecttolerance="10"
     gridtolerance="10"
     guidetolerance="10"
     inkscape:pageopacity="0"
     inkscape:pageshadow="2"
     inkscape:window-width="724"
     inkscape:window-height="480"
     id="namedview22497"
     showgrid="false"
     inkscape:zoom="0.35399999"
     inkscape:cx="333.33334"
     inkscape:cy="333.33334"
     inkscape:window-x="0"
     inkscape:window-y="0"
     inkscape:window-maximized="0"
     inkscape:current-layer="g22503" /><g
     id="g22503"
     inkscape:groupmode="layer"
     inkscape:label="organic-products-publicdomainvectors.org"
     transform="matrix(1.3333333,0,0,-1.3333333,0,666.66667)"><g
       id="g22505"><g
         id="g22507"
         clip-path="url(#clipPath22511)"><path
           d="m 463.806,246.17 c 0,-117.377 -95.152,-212.529 -212.529,-212.529 -117.376,0 -212.528,95.152 -212.528,212.529 0,117.375 95.152,212.528 212.528,212.528 117.377,0 212.529,-95.153 212.529,-212.528"
           style="fill:#009245;fill-opacity:1;fill-rule:nonzero;stroke:none"
           id="path22513"
           inkscape:connector-curvature="0" /><path
           d="m 79.975,211.212 5.866,1.037 c 0.997,0.177 1.651,0.47 1.961,0.882 0.312,0.413 0.366,1.191 0.164,2.334 l 1.745,0.309 1.966,-11.122 -1.745,-0.309 c -0.199,1.123 -0.506,1.839 -0.923,2.149 -0.418,0.311 -1.145,0.373 -2.183,0.191 l -12.614,-2.232 c -1.007,-0.178 -1.662,-0.474 -1.967,-0.889 -0.305,-0.416 -0.355,-1.208 -0.149,-2.373 l -1.745,-0.307 -1.966,11.121 1.745,0.307 c 0.197,-1.111 0.508,-1.816 0.933,-2.114 0.426,-0.298 1.147,-0.357 2.164,-0.176 l 4.782,0.844 -1.548,8.762 -4.782,-0.846 c -0.986,-0.174 -1.637,-0.466 -1.954,-0.873 -0.319,-0.408 -0.378,-1.172 -0.179,-2.295 l -1.746,-0.307 -1.961,11.089 1.747,0.308 c 0.2,-1.133 0.506,-1.855 0.917,-2.166 0.412,-0.31 1.143,-0.374 2.191,-0.188 l 12.614,2.231 c 1.018,0.179 1.675,0.479 1.974,0.9 0.299,0.419 0.345,1.212 0.139,2.375 l 1.746,0.309 1.96,-11.088 -1.745,-0.308 c -0.195,1.099 -0.507,1.794 -0.936,2.081 -0.429,0.287 -1.147,0.341 -2.153,0.161 l -5.867,-1.035 z"
           style="fill:#ffffff;fill-opacity:1;fill-rule:nonzero;stroke:none"
           id="path22515"
           inkscape:connector-curvature="0" /><path
           d="m 67.629,230.124 -1.77,-0.1 -0.629,11.437 1.77,0.096 0.019,-0.336 c 0.059,-1.072 0.297,-1.761 0.713,-2.063 0.415,-0.301 1.109,-0.428 2.076,-0.374 l 12.791,0.704 c 0.988,0.054 1.668,0.261 2.037,0.617 0.369,0.357 0.525,1.06 0.467,2.114 l -0.019,0.336 1.771,0.096 0.63,-11.435 -1.77,-0.098 c -0.064,1.149 -0.281,1.903 -0.653,2.261 -0.372,0.357 -1.089,0.508 -2.152,0.449 l -12.79,-0.703 c -1.032,-0.06 -1.72,-0.274 -2.068,-0.652 -0.347,-0.375 -0.488,-1.16 -0.423,-2.349"
           style="fill:#ffffff;fill-opacity:1;fill-rule:nonzero;stroke:none"
           id="path22517"
           inkscape:connector-curvature="0" /><path
           d="m 79.102,258.62 -1.755,0.104 0.598,10.124 1.754,-0.104 c 0.09,-0.816 0.296,-1.356 0.616,-1.619 0.321,-0.266 1.008,-0.428 2.06,-0.49 l 4.527,-0.267 c -0.042,-0.34 -0.068,-0.615 -0.081,-0.827 -0.062,-1.052 0.104,-2.85 0.499,-5.39 0.277,-1.819 0.379,-3.335 0.307,-4.547 -0.193,-3.284 -1.448,-5.876 -3.763,-7.778 -2.314,-1.9 -4.933,-2.764 -7.857,-2.592 -3.135,0.186 -5.769,1.415 -7.902,3.691 -2.131,2.275 -3.104,4.997 -2.917,8.163 0.151,2.584 1.109,4.805 2.872,6.663 -0.681,0.382 -1.418,0.633 -2.211,0.755 l 0.1,1.707 7.57,-0.255 -0.103,-1.738 c -3.742,-0.878 -5.708,-2.907 -5.895,-6.084 -0.112,-1.893 0.499,-3.378 1.833,-4.452 1.334,-1.077 3.643,-1.712 6.927,-1.905 2.307,-0.136 4.07,-0.094 5.289,0.128 1.218,0.221 2.181,0.729 2.889,1.524 0.708,0.796 1.102,1.858 1.181,3.187 0.069,1.18 -0.128,2.173 -0.593,2.979 -0.464,0.806 -1.445,1.253 -2.945,1.341 l -0.797,0.048 c -1.265,0.075 -2,-0.715 -2.203,-2.366"
           style="fill:#ffffff;fill-opacity:1;fill-rule:nonzero;stroke:none"
           id="path22519"
           inkscape:connector-curvature="0" /><path
           d="m 79.658,279.533 5.819,-1.28 c 0.988,-0.216 1.705,-0.193 2.149,0.068 0.445,0.262 0.791,0.959 1.041,2.094 l 1.731,-0.381 -2.423,-11.028 -1.732,0.379 c 0.245,1.114 0.234,1.892 -0.034,2.339 -0.267,0.445 -0.916,0.781 -1.945,1.008 l -12.512,2.748 c -0.998,0.22 -1.717,0.195 -2.158,-0.073 -0.44,-0.269 -0.787,-0.98 -1.041,-2.134 l -1.732,0.381 2.424,11.029 1.732,-0.38 c -0.244,-1.104 -0.224,-1.873 0.055,-2.31 0.281,-0.439 0.925,-0.768 1.934,-0.99 l 4.743,-1.042 1.909,8.689 -4.743,1.041 c -0.977,0.216 -1.69,0.195 -2.14,-0.059 -0.447,-0.257 -0.794,-0.941 -1.038,-2.053 l -1.732,0.38 2.417,10.998 1.732,-0.381 c -0.247,-1.123 -0.24,-1.907 0.022,-2.351 0.262,-0.445 0.913,-0.781 1.953,-1.01 L 88.6,292.464 c 1.009,-0.221 1.731,-0.194 2.168,0.08 0.436,0.275 0.782,0.99 1.036,2.144 l 1.732,-0.379 -2.418,-10.998 -1.731,0.379 c 0.239,1.092 0.216,1.852 -0.072,2.281 -0.288,0.429 -0.93,0.753 -1.929,0.972 l -5.818,1.279 z"
           style="fill:#ffffff;fill-opacity:1;fill-rule:nonzero;stroke:none"
           id="path22521"
           inkscape:connector-curvature="0" /><path
           d="m 89.287,313.846 c 3.033,-1.381 5.407,-1.97 7.119,-1.767 1.713,0.203 2.935,1.109 3.668,2.718 0.764,1.676 0.727,3.219 -0.111,4.631 -0.838,1.41 -2.793,2.815 -5.864,4.214 -2.811,1.279 -5.09,1.836 -6.84,1.667 -1.75,-0.169 -3.023,-1.125 -3.817,-2.869 -0.75,-1.648 -0.666,-3.171 0.253,-4.573 0.918,-1.4 2.782,-2.741 5.592,-4.021 m 13.844,3.543 0.369,-2.854 c 0.051,0.187 0.098,0.33 0.142,0.427 0.428,0.94 1.467,2.157 3.119,3.651 1.647,1.486 2.8,2.949 3.457,4.393 0.37,0.814 0.553,1.602 0.55,2.364 -0.004,0.763 -0.192,1.493 -0.565,2.189 l 0.721,1.584 c 1.541,-1.007 2.561,-2.301 3.057,-3.884 0.497,-1.583 0.325,-3.296 -0.513,-5.137 -0.582,-1.279 -1.258,-2.241 -2.025,-2.886 -0.767,-0.645 -1.856,-1.255 -3.264,-1.831 -1.109,-0.454 -1.931,-0.887 -2.469,-1.297 -0.538,-0.41 -0.943,-0.916 -1.218,-1.517 -0.397,-0.872 -0.39,-1.822 0.019,-2.851 0.398,-0.977 0.508,-1.659 0.332,-2.046 -0.119,-0.262 -0.32,-0.438 -0.599,-0.527 -0.281,-0.088 -0.557,-0.07 -0.828,0.053 -0.388,0.176 -0.691,0.647 -0.909,1.415 -0.218,0.765 -0.399,1.93 -0.542,3.492 -0.045,0.595 -0.097,1.074 -0.152,1.439 -0.671,-1.473 -1.748,-2.907 -3.231,-4.302 -1.485,-1.397 -3.31,-2.247 -5.479,-2.552 -2.169,-0.305 -4.252,-0.003 -6.248,0.906 -2.849,1.298 -4.826,3.408 -5.927,6.331 -1.102,2.925 -0.888,6.067 0.643,9.431 1.536,3.371 3.761,5.588 6.678,6.647 2.915,1.059 5.812,0.933 8.69,-0.378 2.239,-1.019 3.965,-2.636 5.18,-4.85 1.214,-2.215 1.553,-4.685 1.012,-7.41"
           style="fill:#ffffff;fill-opacity:1;fill-rule:nonzero;stroke:none"
           id="path22523"
           inkscape:connector-curvature="0" /><path
           d="m 90.333,336.73 -1.482,0.969 6.254,9.574 1.484,-0.969 -0.2,-0.307 c -0.589,-0.901 -0.805,-1.593 -0.65,-2.076 0.155,-0.483 0.643,-0.992 1.462,-1.528 l 7.154,-4.674 c 1.301,-0.85 2.396,-1.413 3.285,-1.688 0.889,-0.276 1.832,-0.224 2.829,0.154 0.999,0.378 1.825,1.071 2.484,2.079 0.717,1.097 1.048,2.217 0.997,3.365 -0.052,1.146 -0.405,2.1 -1.061,2.857 -0.655,0.76 -1.705,1.612 -3.149,2.555 l -6.097,3.983 c -1.855,1.212 -3.367,0.922 -4.538,-0.87 l -1.483,0.971 4.386,6.711 1.483,-0.97 c -0.25,-0.383 -0.403,-0.855 -0.458,-1.416 -0.055,-0.563 0.058,-1.051 0.341,-1.463 0.283,-0.415 0.772,-0.849 1.467,-1.303 l 6.057,-3.958 c 1.301,-0.851 2.311,-1.627 3.028,-2.33 0.716,-0.705 1.255,-1.613 1.616,-2.726 0.359,-1.113 0.414,-2.369 0.161,-3.768 -0.254,-1.4 -0.817,-2.768 -1.691,-4.104 -0.913,-1.4 -1.963,-2.505 -3.147,-3.315 -1.184,-0.81 -2.319,-1.28 -3.403,-1.411 -1.084,-0.132 -2.107,-0.032 -3.068,0.297 -0.961,0.329 -2.008,0.863 -3.14,1.604 l -7.153,4.674 c -0.856,0.559 -1.537,0.793 -2.04,0.703 -0.504,-0.091 -1.081,-0.631 -1.728,-1.62"
           style="fill:#ffffff;fill-opacity:1;fill-rule:nonzero;stroke:none"
           id="path22525"
           inkscape:connector-curvature="0" /><path
           d="m 117.355,354.279 3.411,3.998 -6.674,2.145 z m 0.952,-1.715 0.544,-1.01 c 0.382,-0.717 0.691,-1.177 0.925,-1.377 0.397,-0.338 0.788,-0.441 1.174,-0.308 0.386,0.132 0.839,0.501 1.357,1.109 l 1.349,-1.15 -4.645,-5.444 -1.349,1.151 c 0.885,1.037 0.745,2.66 -0.419,4.872 l -8.447,15.963 1.213,1.422 17.163,-5.722 c 1.699,-0.568 2.852,-0.754 3.461,-0.559 0.607,0.196 1.073,0.483 1.399,0.864 l 1.348,-1.15 -6.977,-8.178 -1.349,1.151 c 0.629,0.737 0.949,1.255 0.959,1.555 0.01,0.298 -0.095,0.541 -0.313,0.728 -0.194,0.166 -0.512,0.311 -0.951,0.434 l -0.512,0.165 -1.608,0.551 z"
           style="fill:#ffffff;fill-opacity:1;fill-rule:nonzero;stroke:none"
           id="path22527"
           inkscape:connector-curvature="0" /><path
           d="m 142.79,379.476 4.8,-5.372 -14.545,-13.349 -1.198,1.306 0.236,0.216 c 0.8,0.735 1.184,1.359 1.154,1.873 -0.03,0.514 -0.374,1.127 -1.029,1.841 l -8.662,9.438 c -0.669,0.729 -1.26,1.122 -1.775,1.178 -0.514,0.056 -1.159,-0.272 -1.936,-0.985 l -0.234,-0.217 -1.2,1.306 8.555,7.852 1.2,-1.306 -0.319,-0.292 c -0.8,-0.734 -1.185,-1.359 -1.153,-1.872 0.029,-0.513 0.373,-1.128 1.028,-1.841 l 8.359,-9.109 c 0.627,-0.682 1.08,-1.097 1.359,-1.244 0.281,-0.148 0.661,-0.15 1.142,-0.005 0.481,0.146 1.138,0.601 1.969,1.364 1.396,1.281 2.118,2.589 2.164,3.926 0.045,1.334 -0.35,2.711 -1.186,4.125 z"
           style="fill:#ffffff;fill-opacity:1;fill-rule:nonzero;stroke:none"
           id="path22529"
           inkscape:connector-curvature="0" /><path
           d="m 136.289,390.256 -1.064,1.419 9.166,6.865 1.064,-1.419 -0.269,-0.202 c -0.861,-0.644 -1.302,-1.223 -1.323,-1.737 -0.019,-0.515 0.261,-1.161 0.841,-1.935 l 7.679,-10.253 c 0.594,-0.792 1.142,-1.244 1.643,-1.353 0.501,-0.111 1.174,0.15 2.017,0.783 l 0.27,0.201 1.062,-1.419 -9.166,-6.867 -1.063,1.419 c 0.921,0.69 1.427,1.289 1.518,1.797 0.092,0.507 -0.18,1.187 -0.819,2.04 l -7.679,10.253 c -0.62,0.826 -1.181,1.278 -1.688,1.36 -0.505,0.08 -1.235,-0.238 -2.189,-0.952"
           style="fill:#ffffff;fill-opacity:1;fill-rule:nonzero;stroke:none"
           id="path22531"
           inkscape:connector-curvature="0" /><path
           d="m 155.063,403.168 -1.567,-0.928 c -0.935,-0.553 -1.562,-1.061 -1.882,-1.523 -0.321,-0.462 -0.453,-1.082 -0.394,-1.859 0.056,-0.775 0.298,-1.595 0.721,-2.457 l -1.553,-0.92 -3.14,5.305 18.648,11.044 3.143,-5.305 -1.554,-0.92 c -1.139,1.256 -2.123,1.976 -2.95,2.161 -0.827,0.184 -1.822,-0.067 -2.985,-0.757 l -1.609,-0.952 7.797,-13.165 c 0.505,-0.853 1,-1.36 1.487,-1.524 0.487,-0.163 1.192,0.029 2.118,0.576 l 0.481,0.285 0.903,-1.524 -10.292,-6.096 -0.904,1.524 0.44,0.262 c 0.934,0.552 1.44,1.084 1.516,1.593 0.075,0.509 -0.133,1.18 -0.628,2.014 z"
           style="fill:#ffffff;fill-opacity:1;fill-rule:nonzero;stroke:none"
           id="path22533"
           inkscape:connector-curvature="0" /><path
           d="m 181.449,404.788 -7.651,5.616 c -1.203,0.881 -2.062,1.382 -2.576,1.507 -0.514,0.124 -1.096,0.049 -1.743,-0.223 l -0.689,1.633 10.01,4.216 0.688,-1.633 c -1.079,-0.455 -1.496,-0.972 -1.253,-1.55 0.136,-0.325 0.545,-0.736 1.229,-1.234 l 5.55,-4.04 0.894,6.269 c 0.1,0.643 0.053,1.195 -0.142,1.656 -0.368,0.873 -1.195,1.039 -2.48,0.497 l -0.688,1.634 6.845,2.884 0.687,-1.634 c -0.637,-0.269 -1.11,-0.745 -1.417,-1.428 -0.307,-0.686 -0.611,-1.986 -0.912,-3.903 l -1.205,-7.717 1.866,-4.431 c 0.386,-0.912 0.808,-1.483 1.267,-1.711 0.461,-0.227 1.175,-0.138 2.147,0.272 l 0.309,0.13 0.689,-1.634 -10.702,-4.507 -0.688,1.635 0.325,0.136 c 1,0.421 1.572,0.878 1.717,1.373 0.144,0.494 0.029,1.187 -0.348,2.081 z"
           style="fill:#ffffff;fill-opacity:1;fill-rule:nonzero;stroke:none"
           id="path22535"
           inkscape:connector-curvature="0" /><path
           d="m 210.473,416.916 c 0.671,-3.265 1.592,-5.53 2.765,-6.794 1.172,-1.266 2.625,-1.719 4.356,-1.364 1.805,0.372 3.031,1.31 3.677,2.819 0.647,1.507 0.631,3.915 -0.049,7.221 -0.622,3.024 -1.515,5.194 -2.682,6.509 -1.166,1.315 -2.689,1.78 -4.567,1.395 -1.773,-0.366 -2.954,-1.331 -3.546,-2.899 -0.592,-1.567 -0.576,-3.863 0.046,-6.887 m -6.504,-1.516 c -0.393,1.909 -0.244,3.879 0.448,5.913 0.69,2.033 1.857,3.673 3.499,4.917 1.639,1.247 3.498,2.081 5.574,2.508 3.734,0.767 6.883,0.292 9.448,-1.425 2.566,-1.72 4.169,-4.142 4.813,-7.271 0.609,-2.973 0.076,-5.746 -1.602,-8.319 -1.678,-2.574 -4.337,-4.233 -7.977,-4.982 -2.493,-0.512 -4.805,-0.437 -6.934,0.223 -2.131,0.659 -3.786,1.795 -4.966,3.407 -1.177,1.61 -1.946,3.288 -2.303,5.029"
           style="fill:#ffffff;fill-opacity:1;fill-rule:nonzero;stroke:none"
           id="path22537"
           inkscape:connector-curvature="0" /><path
           d="m 239.371,421.66 c 1.799,0.068 3.005,0.238 3.622,0.509 0.615,0.272 1.087,0.727 1.418,1.368 0.33,0.639 0.469,1.491 0.416,2.555 -0.078,1.52 -0.489,2.554 -1.236,3.104 -0.748,0.549 -1.999,0.779 -3.753,0.691 -0.224,-0.012 -0.516,-0.032 -0.877,-0.059 z m 0.099,-1.946 0.258,-5.122 c 0.049,-0.988 0.252,-1.668 0.614,-2.04 0.36,-0.371 1.067,-0.53 2.118,-0.476 l 0.383,0.019 0.089,-1.771 -11.661,-0.587 -0.088,1.771 0.43,0.022 c 1.086,0.055 1.779,0.29 2.084,0.704 0.304,0.416 0.432,1.106 0.384,2.074 l -0.644,12.794 c -0.049,0.989 -0.254,1.67 -0.614,2.041 -0.36,0.37 -1.067,0.529 -2.119,0.477 l -0.432,-0.022 -0.088,1.77 8.677,0.453 1.944,0.114 c 1.926,0.096 3.335,0.103 4.23,0.021 0.894,-0.083 1.785,-0.345 2.67,-0.786 0.886,-0.441 1.598,-1.068 2.133,-1.884 0.538,-0.815 0.831,-1.707 0.878,-2.674 0.13,-2.574 -1.238,-4.407 -4.105,-5.499 0.802,-0.451 2.086,-1.922 3.853,-4.413 1.376,-1.925 2.344,-3.077 2.908,-3.46 0.566,-0.382 1.168,-0.556 1.816,-0.524 l 0.092,-1.77 -6.764,-0.341 c -0.654,0.703 -1.891,2.505 -3.71,5.412 -0.917,1.467 -1.556,2.41 -1.918,2.829 -0.362,0.419 -0.724,0.68 -1.087,0.785 -0.363,0.103 -1.139,0.131 -2.331,0.083"
           style="fill:#ffffff;fill-opacity:1;fill-rule:nonzero;stroke:none"
           id="path22539"
           inkscape:connector-curvature="0" /><path
           d="m 269.268,417.861 0.161,1.749 10.1,-0.921 -0.16,-1.751 c -0.818,-0.063 -1.366,-0.251 -1.64,-0.564 -0.275,-0.311 -0.458,-0.992 -0.555,-2.041 l -0.41,-4.517 c -0.339,0.052 -0.614,0.087 -0.826,0.106 -1.049,0.097 -2.85,-0.012 -5.402,-0.324 -1.827,-0.219 -3.346,-0.272 -4.554,-0.162 -3.277,0.298 -5.828,1.635 -7.653,4.009 -1.826,2.374 -2.605,5.02 -2.341,7.936 0.287,3.128 1.601,5.721 3.943,7.78 2.341,2.058 5.092,2.944 8.254,2.655 2.577,-0.234 4.765,-1.263 6.565,-3.084 0.405,0.669 0.68,1.397 0.827,2.185 l 1.7,-0.154 -0.496,-7.556 -1.734,0.157 c -0.757,3.768 -2.722,5.797 -5.892,6.086 -1.888,0.172 -3.392,-0.39 -4.509,-1.689 -1.119,-1.3 -1.826,-3.586 -2.125,-6.864 -0.208,-2.301 -0.223,-4.064 -0.042,-5.288 0.182,-1.225 0.66,-2.205 1.432,-2.938 0.773,-0.733 1.822,-1.16 3.147,-1.281 1.177,-0.107 2.176,0.058 2.997,0.497 0.821,0.438 1.299,1.405 1.435,2.9 l 0.073,0.795 c 0.115,1.262 -0.65,2.022 -2.295,2.279"
           style="fill:#ffffff;fill-opacity:1;fill-rule:nonzero;stroke:none"
           id="path22541"
           inkscape:connector-curvature="0" /><path
           d="m 285.93,414.787 5.116,-1.192 -1.161,6.912 z m -1.085,-1.634 -0.648,-0.948 c -0.463,-0.669 -0.727,-1.155 -0.798,-1.454 -0.117,-0.509 -0.03,-0.904 0.267,-1.186 0.293,-0.281 0.831,-0.513 1.609,-0.694 l -0.402,-1.726 -6.969,1.62 0.401,1.728 c 1.328,-0.309 2.706,0.562 4.133,2.612 l 10.292,14.84 1.819,-0.423 2.812,-17.872 c 0.278,-1.77 0.643,-2.879 1.096,-3.33 0.451,-0.449 0.923,-0.731 1.409,-0.844 l -0.401,-1.726 -10.47,2.435 0.402,1.727 c 0.944,-0.22 1.55,-0.265 1.821,-0.137 0.27,0.128 0.439,0.333 0.506,0.612 0.055,0.25 0.038,0.598 -0.054,1.047 l -0.091,0.528 -0.248,1.681 z"
           style="fill:#ffffff;fill-opacity:1;fill-rule:nonzero;stroke:none"
           id="path22543"
           inkscape:connector-curvature="0" /><path
           d="m 309.201,416.63 -3.56,-9.292 c -0.574,-1.491 -0.67,-2.554 -0.291,-3.189 0.378,-0.635 0.99,-1.116 1.835,-1.439 l -0.635,-1.656 -7.591,2.91 0.633,1.656 c 0.647,-0.248 1.268,-0.307 1.867,-0.177 0.595,0.131 1.038,0.378 1.326,0.742 0.287,0.361 0.603,0.986 0.94,1.871 l 3.957,10.32 c 0.788,2.059 0.219,3.457 -1.71,4.196 l 0.634,1.656 6.83,-2.618 6.337,-16.627 2.841,7.413 c 0.845,2.208 0.34,3.667 -1.521,4.38 l 0.636,1.655 7.261,-2.783 -0.634,-1.655 c -0.506,0.194 -1.033,0.236 -1.585,0.128 -0.547,-0.109 -0.985,-0.35 -1.31,-0.721 -0.323,-0.371 -0.645,-0.97 -0.962,-1.795 l -5.95,-15.525 -1.908,0.731 z"
           style="fill:#ffffff;fill-opacity:1;fill-rule:nonzero;stroke:none"
           id="path22545"
           inkscape:connector-curvature="0" /><path
           d="m 331.281,412.286 0.823,1.571 10.151,-5.297 -0.821,-1.572 -0.296,0.155 c -0.953,0.498 -1.666,0.645 -2.14,0.44 -0.472,-0.203 -0.932,-0.735 -1.383,-1.594 l -5.925,-11.356 c -0.458,-0.878 -0.627,-1.568 -0.51,-2.067 0.118,-0.5 0.643,-0.993 1.579,-1.481 l 0.297,-0.155 -0.82,-1.572 -10.154,5.298 0.819,1.573 c 1.023,-0.533 1.781,-0.731 2.279,-0.595 0.496,0.137 0.992,0.678 1.485,1.621 l 5.927,11.357 c 0.474,0.916 0.64,1.619 0.495,2.11 -0.147,0.491 -0.749,1.012 -1.806,1.564"
           style="fill:#ffffff;fill-opacity:1;fill-rule:nonzero;stroke:none"
           id="path22547"
           inkscape:connector-curvature="0" /><path
           d="m 356.015,383.847 -4.541,-6.743 -1.471,0.989 c 0.316,0.829 0.45,1.573 0.407,2.231 -2.506,-0.495 -4.98,0.08 -7.427,1.728 -2.78,1.874 -4.395,4.281 -4.839,7.225 -0.444,2.944 0.175,5.664 1.859,8.165 1.659,2.464 3.959,4.098 6.9,4.902 2.944,0.804 5.873,0.225 8.788,-1.738 2.181,-1.468 3.546,-3.434 4.097,-5.897 0.505,0.314 1.051,0.724 1.634,1.23 l 1.458,-0.982 -4.283,-6.764 -1.457,0.982 c 0.78,2.094 0.989,3.933 0.626,5.519 -0.365,1.587 -1.222,2.834 -2.574,3.744 -1.553,1.047 -3.133,1.226 -4.74,0.536 -1.608,-0.69 -3.282,-2.328 -5.027,-4.915 -1.223,-1.819 -2.054,-3.357 -2.487,-4.612 -0.434,-1.254 -0.426,-2.449 0.02,-3.586 0.448,-1.136 1.168,-2.038 2.157,-2.703 1.306,-0.88 2.781,-1.211 4.416,-0.99 1.636,0.219 3.31,1.108 5.014,2.669 z"
           style="fill:#ffffff;fill-opacity:1;fill-rule:nonzero;stroke:none"
           id="path22549"
           inkscape:connector-curvature="0" /><path
           d="m 373.313,372.805 0.755,-0.737 c 1.21,-1.183 2.276,-1.706 3.198,-1.57 0.92,0.135 1.811,0.645 2.676,1.528 0.773,0.793 1.248,1.58 1.434,2.361 0.182,0.782 0.116,1.469 -0.197,2.065 -0.312,0.595 -0.973,1.387 -1.987,2.376 z m -1.339,-1.372 -3.603,-3.692 c -0.691,-0.708 -1.053,-1.319 -1.086,-1.832 -0.031,-0.513 0.334,-1.14 1.096,-1.884 l 0.354,-0.345 -1.237,-1.269 -8.4,8.199 1.237,1.27 0.275,-0.268 c 0.769,-0.752 1.41,-1.097 1.919,-1.04 0.513,0.06 1.108,0.436 1.783,1.13 l 8.949,9.166 c 0.69,0.708 1.052,1.32 1.084,1.832 0.032,0.512 -0.33,1.137 -1.084,1.874 l -0.378,0.367 1.238,1.269 6.42,-5.999 c 1.57,-1.532 2.743,-2.758 3.519,-3.679 0.774,-0.921 1.336,-1.921 1.678,-3.002 0.345,-1.079 0.393,-2.11 0.14,-3.092 -0.251,-0.981 -0.743,-1.846 -1.471,-2.593 -0.989,-1.014 -2.149,-1.573 -3.48,-1.68 -1.331,-0.107 -2.582,0.184 -3.749,0.87 -1.166,0.685 -2.523,1.78 -4.061,3.282 z"
           style="fill:#ffffff;fill-opacity:1;fill-rule:nonzero;stroke:none"
           id="path22551"
           inkscape:connector-curvature="0" /><path
           d="m 387.935,356.908 c 1.092,-1.429 1.928,-2.317 2.504,-2.663 0.576,-0.347 1.221,-0.471 1.934,-0.371 0.715,0.1 1.489,0.477 2.33,1.135 1.195,0.939 1.805,1.872 1.821,2.8 0.017,0.927 -0.515,2.081 -1.599,3.464 -0.139,0.175 -0.324,0.403 -0.555,0.681 z m -1.534,-1.202 -4.034,-3.163 c -0.78,-0.611 -1.217,-1.171 -1.311,-1.679 -0.098,-0.508 0.181,-1.177 0.831,-2.007 l 0.236,-0.3 -1.394,-1.094 -7.207,9.188 1.396,1.093 0.267,-0.339 c 0.669,-0.855 1.261,-1.286 1.777,-1.296 0.516,-0.009 1.154,0.285 1.915,0.882 l 10.082,7.905 c 0.778,0.611 1.217,1.169 1.312,1.678 0.094,0.508 -0.182,1.176 -0.833,2.006 l -0.265,0.34 1.393,1.094 5.376,-6.827 1.215,-1.524 c 1.19,-1.517 2.008,-2.664 2.454,-3.443 0.45,-0.779 0.748,-1.657 0.899,-2.634 0.151,-0.979 0.048,-1.922 -0.31,-2.83 -0.355,-0.909 -0.914,-1.662 -1.676,-2.26 -2.029,-1.59 -4.314,-1.529 -6.862,0.183 0.094,-0.915 -0.365,-2.812 -1.383,-5.692 -0.777,-2.235 -1.16,-3.692 -1.148,-4.371 0.013,-0.682 0.219,-1.276 0.619,-1.788 l -1.394,-1.094 -4.18,5.329 c 0.199,0.94 0.958,2.99 2.281,6.152 0.671,1.595 1.072,2.661 1.207,3.2 0.132,0.536 0.137,0.983 0.014,1.34 -0.122,0.355 -0.548,1.007 -1.277,1.951"
           style="fill:#ffffff;fill-opacity:1;fill-rule:nonzero;stroke:none"
           id="path22553"
           inkscape:connector-curvature="0" /><path
           d="m 401.131,337.593 c -2.897,-1.649 -4.766,-3.228 -5.603,-4.735 -0.838,-1.507 -0.822,-3.028 0.054,-4.564 0.912,-1.601 2.182,-2.475 3.818,-2.623 1.635,-0.148 3.917,0.615 6.851,2.285 2.684,1.528 4.471,3.05 5.356,4.567 0.891,1.517 0.86,3.108 -0.089,4.774 -0.895,1.573 -2.181,2.396 -3.853,2.473 -1.673,0.076 -3.852,-0.649 -6.534,-2.177 m -3.458,5.714 c 1.694,0.965 3.614,1.433 5.761,1.407 2.15,-0.027 4.067,-0.628 5.76,-1.803 1.693,-1.174 3.065,-2.682 4.111,-4.524 1.887,-3.312 2.411,-6.454 1.574,-9.426 -0.841,-2.97 -2.648,-5.246 -5.422,-6.828 -2.638,-1.5 -5.442,-1.852 -8.405,-1.054 -2.968,0.798 -5.37,2.812 -7.209,6.04 -1.261,2.212 -1.905,4.433 -1.94,6.663 -0.031,2.229 0.537,4.155 1.702,5.775 1.167,1.62 2.523,2.87 4.068,3.75"
           style="fill:#ffffff;fill-opacity:1;fill-rule:nonzero;stroke:none"
           id="path22555"
           inkscape:connector-curvature="0" /><path
           d="m 422.587,314.434 -13.965,-5.248 c -0.896,-0.337 -1.483,-0.605 -1.761,-0.807 -0.278,-0.201 -0.459,-0.524 -0.54,-0.97 -0.081,-0.446 0.019,-1.048 0.304,-1.806 0.703,-1.874 1.918,-3.018 3.644,-3.433 1.724,-0.415 3.958,-0.109 6.702,0.922 2.212,0.831 3.845,1.837 4.896,3.018 1.053,1.18 1.608,2.407 1.662,3.679 0.057,1.272 -0.257,2.821 -0.942,4.645 m -21.68,0.931 1.661,0.623 c 0.4,-1.066 0.835,-1.712 1.299,-1.934 0.465,-0.224 1.19,-0.151 2.178,0.221 l 12.004,4.511 c 0.958,0.36 1.549,0.77 1.775,1.23 0.225,0.46 0.128,1.243 -0.286,2.348 l 1.646,0.619 1.004,-2.403 c 1.021,-2.415 1.792,-4.32 2.317,-5.715 0.876,-2.332 1.454,-4.279 1.736,-5.841 0.279,-1.561 0.205,-3.164 -0.217,-4.806 -0.423,-1.645 -1.228,-3.091 -2.415,-4.338 -1.185,-1.247 -2.65,-2.199 -4.394,-2.855 -1.785,-0.671 -3.519,-0.898 -5.202,-0.683 -1.685,0.214 -3.182,0.792 -4.492,1.733 -1.308,0.942 -2.315,2.048 -3.022,3.319 -0.704,1.269 -1.653,3.496 -2.848,6.674 z"
           style="fill:#ffffff;fill-opacity:1;fill-rule:nonzero;stroke:none"
           id="path22557"
           inkscape:connector-curvature="0" /><path
           d="m 429.114,296.005 1.736,0.364 2.349,-11.192 -1.736,-0.364 -0.073,0.359 c -0.223,1.054 -0.558,1.694 -1.009,1.927 -0.451,0.232 -1.156,0.247 -2.115,0.045 l -8.363,-1.756 c -1.521,-0.319 -2.693,-0.696 -3.516,-1.13 -0.824,-0.433 -1.453,-1.136 -1.892,-2.11 -0.437,-0.973 -0.532,-2.047 -0.285,-3.226 0.27,-1.281 0.829,-2.31 1.675,-3.083 0.849,-0.775 1.773,-1.198 2.772,-1.272 1.001,-0.073 2.345,0.069 4.033,0.424 l 7.127,1.495 c 2.167,0.455 3.034,1.731 2.592,3.825 l 1.736,0.364 1.647,-7.847 -1.734,-0.365 c -0.095,0.45 -0.321,0.891 -0.677,1.327 -0.361,0.437 -0.786,0.701 -1.278,0.793 -0.492,0.092 -1.145,0.054 -1.958,-0.118 l -7.082,-1.486 c -1.521,-0.319 -2.784,-0.484 -3.789,-0.494 -1.003,-0.008 -2.027,0.253 -3.07,0.785 -1.043,0.531 -1.967,1.382 -2.779,2.549 -0.81,1.168 -1.379,2.534 -1.708,4.098 -0.343,1.636 -0.383,3.159 -0.119,4.568 0.264,1.411 0.734,2.545 1.407,3.405 0.674,0.859 1.467,1.513 2.379,1.96 0.912,0.447 2.03,0.81 3.353,1.088 l 8.364,1.755 c 1.001,0.21 1.647,0.525 1.939,0.946 0.294,0.42 0.317,1.209 0.074,2.366"
           style="fill:#ffffff;fill-opacity:1;fill-rule:nonzero;stroke:none"
           id="path22559"
           inkscape:connector-curvature="0" /><path
           d="m 424.254,246.665 -8.116,-0.492 -0.107,1.769 c 0.85,0.254 1.522,0.599 2.017,1.035 -1.916,1.687 -2.961,4.002 -3.14,6.946 -0.202,3.348 0.729,6.093 2.796,8.234 2.068,2.141 4.605,3.303 7.613,3.485 2.966,0.18 5.662,-0.654 8.088,-2.502 2.429,-1.848 3.747,-4.525 3.961,-8.032 0.159,-2.625 -0.572,-4.905 -2.194,-6.838 0.557,-0.211 1.214,-0.395 1.971,-0.552 l 0.104,-1.754 -7.975,-0.707 -0.104,1.754 c 2.135,0.651 3.726,1.603 4.763,2.856 1.038,1.253 1.508,2.692 1.41,4.318 -0.114,1.871 -0.933,3.234 -2.454,4.091 -1.526,0.858 -3.845,1.191 -6.959,1.003 -2.191,-0.133 -3.914,-0.407 -5.175,-0.826 -1.26,-0.418 -2.204,-1.15 -2.836,-2.195 -0.628,-1.048 -0.908,-2.166 -0.836,-3.355 0.095,-1.573 0.728,-2.943 1.898,-4.11 1.169,-1.167 2.89,-1.953 5.167,-2.359 z"
           style="fill:#ffffff;fill-opacity:1;fill-rule:nonzero;stroke:none"
           id="path22561"
           inkscape:connector-curvature="0" /><path
           d="m 435.019,234.37 0.145,1.817 c 0.084,1.083 0.03,1.887 -0.164,2.416 -0.191,0.529 -0.622,0.991 -1.29,1.394 -0.669,0.398 -1.478,0.673 -2.426,0.82 l 0.143,1.8 6.144,-0.487 -1.713,-21.603 -6.145,0.487 0.144,1.799 c 1.682,0.208 2.835,0.596 3.464,1.167 0.628,0.569 0.994,1.528 1.1,2.875 l 0.148,1.863 -15.253,1.21 c -0.987,0.078 -1.685,-0.034 -2.1,-0.338 -0.414,-0.304 -0.663,-0.992 -0.748,-2.064 l -0.044,-0.558 -1.769,0.141 0.946,11.924 1.768,-0.138 -0.042,-0.51 c -0.086,-1.084 0.057,-1.8 0.429,-2.156 0.372,-0.357 1.043,-0.572 2.008,-0.649 z"
           style="fill:#ffffff;fill-opacity:1;fill-rule:nonzero;stroke:none"
           id="path22563"
           inkscape:connector-curvature="0" /><path
           d="m 414.123,220.09 7.262,-1.493 -0.389,-1.875 c -2.277,-0.077 -3.985,-0.542 -5.128,-1.392 -1.141,-0.853 -1.838,-1.886 -2.088,-3.096 -0.182,-0.897 -0.064,-1.666 0.36,-2.305 0.422,-0.644 0.991,-1.037 1.711,-1.184 0.512,-0.105 1.057,-0.045 1.637,0.184 0.581,0.23 1.311,0.906 2.195,2.029 1.692,2.162 2.907,3.608 3.639,4.338 0.732,0.73 1.587,1.263 2.569,1.593 0.983,0.331 2.04,0.381 3.177,0.146 1.824,-0.375 3.195,-1.338 4.111,-2.891 0.915,-1.55 1.195,-3.188 0.842,-4.91 -0.372,-1.803 -1.292,-3.213 -2.758,-4.225 0.268,-0.275 0.713,-0.545 1.332,-0.813 l -0.371,-1.8 -6.259,1.287 0.36,1.753 c 1.452,0.025 2.717,0.385 3.791,1.08 1.08,0.691 1.732,1.583 1.957,2.678 0.168,0.826 0.073,1.527 -0.286,2.106 -0.36,0.58 -0.885,0.938 -1.572,1.082 -0.532,0.109 -1.056,0.053 -1.576,-0.166 -0.518,-0.22 -0.98,-0.567 -1.386,-1.038 -0.407,-0.47 -1.189,-1.483 -2.344,-3.038 -1.048,-1.393 -1.934,-2.404 -2.66,-3.027 -0.726,-0.622 -1.569,-1.058 -2.528,-1.312 -0.96,-0.255 -1.946,-0.278 -2.956,-0.071 -1.879,0.386 -3.299,1.4 -4.26,3.043 -0.963,1.645 -1.244,3.424 -0.851,5.343 0.226,1.097 0.675,2.12 1.35,3.075 0.673,0.955 1.456,1.664 2.345,2.134 -0.419,0.337 -0.957,0.632 -1.612,0.886 z"
           style="fill:#ffffff;fill-opacity:1;fill-rule:nonzero;stroke:none"
           id="path22565"
           inkscape:connector-curvature="0" /><path
           d="m 392.762,246.17 c 0,-78.14 -63.346,-141.485 -141.485,-141.485 -78.14,0 -141.485,63.345 -141.485,141.485 0,78.14 63.345,141.484 141.485,141.484 78.139,0 141.485,-63.344 141.485,-141.484"
           style="fill:#572316;fill-opacity:1;fill-rule:nonzero;stroke:none"
           id="path22567"
           inkscape:connector-curvature="0" /><path
           d="m 295.914,319.991 v 51.407 h -57.251 v -51.407 c 0,-12.266 -5.663,-23.783 -15.22,-31.471 -5.536,-4.454 -9.078,-11.284 -9.078,-18.942 V 120.94 h 105.848 v 148.638 c 0,7.658 -3.544,14.49 -9.08,18.943 -9.557,7.687 -15.219,19.206 -15.219,31.47"
           style="fill:#c7eeff;fill-opacity:1;fill-rule:nonzero;stroke:none"
           id="path22569"
           inkscape:connector-curvature="0" /><path
           d="m 299.956,351.32 h -65.334 v 20.079 h 65.334 z"
           style="fill:#fbb03b;fill-opacity:1;fill-rule:nonzero;stroke:none"
           id="path22571"
           inkscape:connector-curvature="0" /><path
           d="m 313.326,120.94 h -92.075 v 140.137 h 92.075 z"
           style="fill:#def5ff;fill-opacity:1;fill-rule:nonzero;stroke:none"
           id="path22573"
           inkscape:connector-curvature="0" /><g
           id="g22575"><g
             id="g22577" /><g
             id="g22587"><g
               clip-path="url(#clipPath22581)"
               id="g22585"><path
                 d="m 246.96,163.687 h -12.447 v 129.22 c 0,2.667 2.162,4.829 4.828,4.829 h 2.79 c 2.668,0 4.829,-2.162 4.829,-4.829 z"
                 style="fill:#ffffff;fill-opacity:1;fill-rule:nonzero;stroke:none"
                 id="path22583"
                 inkscape:connector-curvature="0" /></g></g></g><g
           id="g22589"><g
             id="g22591" /><g
             id="g22601"><g
               clip-path="url(#clipPath22595)"
               id="g22599"><path
                 d="M 293.028,148.496 H 280.581 V 351.32 h 12.447 z"
                 style="fill:#ffffff;fill-opacity:1;fill-rule:nonzero;stroke:none"
                 id="path22597"
                 inkscape:connector-curvature="0" /></g></g></g><path
           d="m 217.72,200.201 c -10.985,-8.085 -26.445,-5.735 -34.531,5.249 -8.086,10.985 -5.737,26.444 5.248,34.532 10.984,8.084 41.233,16.622 49.319,5.638 8.088,-10.984 -9.051,-37.332 -20.036,-45.419"
           style="fill:#fbddad;fill-opacity:1;fill-rule:nonzero;stroke:none"
           id="path22603"
           inkscape:connector-curvature="0" /><path
           d="m 217.724,200.205 c -10.989,-8.091 -26.454,-5.74 -34.536,5.239 -4.983,6.768 -6.009,15.239 -3.479,22.645 0.128,-4.869 1.692,-9.734 4.8,-13.955 8.081,-10.979 23.546,-13.328 34.535,-5.239 7.27,5.351 17.23,18.701 20.791,30.304 0.608,-12.622 -12.919,-32.226 -22.111,-38.994"
           style="fill:#e6ca9e;fill-opacity:1;fill-rule:nonzero;stroke:none"
           id="path22605"
           inkscape:connector-curvature="0" /><path
           d="m 201.283,243.214 c -4.352,-12.927 -18.36,-19.88 -31.286,-15.527 -12.928,4.351 -19.88,18.357 -15.529,31.285 4.352,12.927 24.218,37.284 37.144,32.932 12.928,-4.351 14.022,-35.763 9.671,-48.69"
           style="fill:#fbddad;fill-opacity:1;fill-rule:nonzero;stroke:none"
           id="path22607"
           inkscape:connector-curvature="0" /><path
           d="m 201.284,243.219 c -4.353,-12.934 -18.365,-19.889 -31.285,-15.539 -7.965,2.681 -13.67,9.029 -15.85,16.544 2.901,-3.913 6.975,-6.998 11.943,-8.671 12.919,-4.348 26.93,2.605 31.283,15.539 2.88,8.555 3.372,25.202 -0.374,36.748 7.745,-9.985 7.924,-33.803 4.283,-44.621"
           style="fill:#e6ca9e;fill-opacity:1;fill-rule:nonzero;stroke:none"
           id="path22609"
           inkscape:connector-curvature="0" /><path
           d="m 181.885,223.242 c 0,-13.64 -11.058,-24.698 -24.698,-24.698 -13.64,0 -24.697,11.058 -24.697,24.698 0,13.639 11.057,43.06 24.697,43.06 13.64,0 24.698,-29.421 24.698,-43.06"
           style="fill:#fbddad;fill-opacity:1;fill-rule:nonzero;stroke:none"
           id="path22611"
           inkscape:connector-curvature="0" /><path
           d="m 181.885,223.246 c 0,-13.646 -11.062,-24.707 -24.693,-24.707 -8.406,0 -15.836,4.195 -20.3,10.622 3.998,-2.783 8.843,-4.407 14.084,-4.407 13.632,0 24.693,11.06 24.693,24.707 0,9.025 -4.846,24.962 -12.078,34.708 10.524,-6.992 18.294,-29.51 18.294,-40.923"
           style="fill:#e6ca9e;fill-opacity:1;fill-rule:nonzero;stroke:none"
           id="path22613"
           inkscape:connector-curvature="0" /><path
           d="m 151.677,239.564 c 7.525,-11.376 4.402,-26.7 -6.975,-34.223 -11.377,-7.525 -26.699,-4.403 -34.224,6.973 -7.524,11.377 -14.533,42.018 -3.156,49.542 11.377,7.525 36.831,-10.916 44.355,-22.292"
           style="fill:#fbddad;fill-opacity:1;fill-rule:nonzero;stroke:none"
           id="path22615"
           inkscape:connector-curvature="0" /><path
           d="m 151.674,239.568 c 7.529,-11.38 4.405,-26.709 -6.965,-34.228 -7.011,-4.638 -15.523,-5.237 -22.791,-2.339 4.869,-0.117 9.806,1.202 14.178,4.093 11.369,7.521 14.493,22.847 6.966,34.23 -4.981,7.529 -17.812,18.146 -29.222,22.285 12.636,-0.026 31.538,-14.52 37.834,-24.041"
           style="fill:#e6ca9e;fill-opacity:1;fill-rule:nonzero;stroke:none"
           id="path22617"
           inkscape:connector-curvature="0" /><path
           d="M 224.785,151.879 H 115.128 l -7.744,62.198 h 125.143 z"
           style="fill:#f15a24;fill-opacity:1;fill-rule:nonzero;stroke:none"
           id="path22619"
           inkscape:connector-curvature="0" /><path
           d="m 231.688,207.327 -6.247,-50.181 c -0.374,-3.009 -2.93,-5.267 -5.961,-5.267 h -99.049 c -3.032,0 -5.587,2.259 -5.961,5.268 l -0.051,0.403 c -0.443,3.584 2.352,6.746 5.963,6.746 h 88.532 c 3.031,0 5.586,2.257 5.961,5.264 l 4.891,39.252 c 0.374,3.008 2.93,5.265 5.96,5.265 3.612,0 6.407,-3.164 5.962,-6.75"
           style="fill:#e05422;fill-opacity:1;fill-rule:nonzero;stroke:none"
           id="path22621"
           inkscape:connector-curvature="0" /><path
           d="m 279.443,258.51 v -33.046 c 5.701,0 10.322,-4.622 10.322,-10.321 0,-5.701 -4.621,-10.323 -10.322,-10.323 v -41.434 h 118.969 v 95.124 z"
           style="fill:#f7931e;fill-opacity:1;fill-rule:nonzero;stroke:none"
           id="path22623"
           inkscape:connector-curvature="0" /><path
           d="m 279.443,258.51 70.776,29.128 c 8.831,3.633 18.987,1.478 25.578,-5.43 l 22.615,-23.698 z"
           style="fill:#fbb03b;fill-opacity:1;fill-rule:nonzero;stroke:none"
           id="path22625"
           inkscape:connector-curvature="0" /><path
           d="m 322.472,229.042 c 0,-5.997 -4.861,-10.855 -10.857,-10.855 -5.996,0 -10.857,4.858 -10.857,10.855 0,5.996 4.861,10.857 10.857,10.857 5.996,0 10.857,-4.861 10.857,-10.857"
           style="fill:#c48a2e;fill-opacity:1;fill-rule:nonzero;stroke:none"
           id="path22627"
           inkscape:connector-curvature="0" /><path
           d="m 314.659,185.328 c 0,-3.837 -3.111,-6.949 -6.951,-6.949 -3.838,0 -6.95,3.112 -6.95,6.949 0,3.839 3.112,6.95 6.95,6.95 3.84,0 6.951,-3.111 6.951,-6.95"
           style="fill:#c48a2e;fill-opacity:1;fill-rule:nonzero;stroke:none"
           id="path22629"
           inkscape:connector-curvature="0" /><path
           d="m 359.747,222.093 c 0,-3.839 -3.113,-6.95 -6.951,-6.95 -3.838,0 -6.949,3.111 -6.949,6.95 0,3.838 3.111,6.949 6.949,6.949 3.838,0 6.951,-3.111 6.951,-6.949"
           style="fill:#c48a2e;fill-opacity:1;fill-rule:nonzero;stroke:none"
           id="path22631"
           inkscape:connector-curvature="0" /><path
           d="m 385.293,196.291 c 0,-5.7 -4.621,-10.322 -10.321,-10.322 -5.701,0 -10.322,4.622 -10.322,10.322 0,5.7 4.621,10.322 10.322,10.322 5.7,0 10.321,-4.622 10.321,-10.322"
           style="fill:#c48a2e;fill-opacity:1;fill-rule:nonzero;stroke:none"
           id="path22633"
           inkscape:connector-curvature="0" /><path
           d="m 456.462,43.275 h -59.485 v 96.33 h 59.485 L 434.905,91.439 Z"
           style="fill:#d9a50a;fill-opacity:1;fill-rule:nonzero;stroke:none"
           id="path22635"
           inkscape:connector-curvature="0" /><path
           d="M 419.854,83.01 396.977,43.275 V 83.01 Z"
           style="fill:#ba8e09;fill-opacity:1;fill-rule:nonzero;stroke:none"
           id="path22637"
           inkscape:connector-curvature="0" /><path
           d="m 46.093,43.275 h 59.485 v 96.33 H 46.093 L 67.648,91.439 Z"
           style="fill:#d9a50a;fill-opacity:1;fill-rule:nonzero;stroke:none"
           id="path22639"
           inkscape:connector-curvature="0" /><path
           d="M 82.7,83.01 105.578,43.275 V 83.01 Z"
           style="fill:#ba8e09;fill-opacity:1;fill-rule:nonzero;stroke:none"
           id="path22641"
           inkscape:connector-curvature="0" /><path
           d="M 419.854,83.01 H 82.7 v 96.331 h 337.154 z"
           style="fill:#f3ba0c;fill-opacity:1;fill-rule:nonzero;stroke:none"
           id="path22643"
           inkscape:connector-curvature="0" /><path
           d="m 105.171,107.27 v 47.81 h 26.582 v -5.29 h -15.938 v -15.936 h 10.646 v -5.355 h -10.646 v -15.937 h 15.938 v -5.292 z"
           style="fill:#ffffff;fill-opacity:1;fill-rule:nonzero;stroke:none"
           id="path22645"
           inkscape:connector-curvature="0" /><path
           d="m 174.208,117.916 c -0.424,-7.098 -3.952,-10.646 -10.582,-10.646 H 152.98 c -2.89,0 -5.386,1.042 -7.49,3.124 -2.103,2.082 -3.156,4.59 -3.156,7.522 v 26.518 c 0,2.89 1.031,5.388 3.093,7.49 2.061,2.103 4.579,3.156 7.553,3.156 h 10.646 c 6.672,0 10.2,-3.549 10.582,-10.646 h -5.29 c -0.426,3.571 -2.19,5.356 -5.292,5.356 h -5.354 c -1.445,0 -2.689,-0.522 -3.729,-1.562 -1.043,-1.042 -1.563,-2.305 -1.563,-3.794 v -26.518 c 0,-1.446 0.52,-2.699 1.563,-3.761 1.04,-1.062 2.284,-1.593 3.729,-1.593 h 5.354 c 3.145,0 4.909,1.784 5.292,5.354 z"
           style="fill:#ffffff;fill-opacity:1;fill-rule:nonzero;stroke:none"
           id="path22647"
           inkscape:connector-curvature="0" /><path
           d="m 195.499,144.434 v -26.518 c 0,-1.446 0.521,-2.699 1.562,-3.761 1.04,-1.062 2.284,-1.593 3.73,-1.593 1.487,0 2.75,0.531 3.792,1.593 1.042,1.062 1.562,2.315 1.562,3.761 v 26.518 c 0,1.489 -0.52,2.752 -1.562,3.794 -1.042,1.04 -2.305,1.562 -3.792,1.562 -1.446,0 -2.69,-0.522 -3.73,-1.562 -1.041,-1.042 -1.562,-2.305 -1.562,-3.794 m 0,10.646 h 10.646 c 2.889,0 5.376,-1.053 7.459,-3.156 2.082,-2.102 3.124,-4.6 3.124,-7.49 v -26.518 c 0,-2.89 -1.042,-5.385 -3.124,-7.489 -2.083,-2.106 -4.57,-3.157 -7.459,-3.157 h -10.646 c -2.89,0 -5.386,1.042 -7.49,3.124 -2.104,2.082 -3.155,4.59 -3.155,7.522 v 26.518 c 0,2.931 1.051,5.44 3.155,7.524 2.104,2.081 4.6,3.122 7.49,3.122"
           style="fill:#ffffff;fill-opacity:1;fill-rule:nonzero;stroke:none"
           id="path22649"
           inkscape:connector-curvature="0" /><path
           d="m 243.309,107.27 v 47.81 h 26.584 v -5.29 H 253.954 V 133.854 H 264.6 v -5.355 H 253.954 V 107.27 Z"
           style="fill:#ffffff;fill-opacity:1;fill-rule:nonzero;stroke:none"
           id="path22651"
           inkscape:connector-curvature="0" /><path
           d="m 291.119,144.434 v -26.518 c 0,-1.446 0.52,-2.699 1.562,-3.761 1.039,-1.062 2.284,-1.593 3.728,-1.593 1.488,0 2.752,0.531 3.794,1.593 1.041,1.062 1.562,2.315 1.562,3.761 v 26.518 c 0,1.489 -0.521,2.752 -1.562,3.794 -1.042,1.04 -2.306,1.562 -3.794,1.562 -1.444,0 -2.689,-0.522 -3.728,-1.562 -1.042,-1.042 -1.562,-2.305 -1.562,-3.794 m 0,10.646 h 10.646 c 2.89,0 5.376,-1.053 7.457,-3.156 2.083,-2.102 3.125,-4.6 3.125,-7.49 v -26.518 c 0,-2.89 -1.042,-5.385 -3.125,-7.489 -2.081,-2.106 -4.567,-3.157 -7.457,-3.157 h -10.646 c -2.89,0 -5.386,1.042 -7.49,3.124 -2.104,2.082 -3.156,4.59 -3.156,7.522 v 26.518 c 0,2.931 1.052,5.44 3.156,7.524 2.104,2.081 4.6,3.122 7.49,3.122"
           style="fill:#ffffff;fill-opacity:1;fill-rule:nonzero;stroke:none"
           id="path22653"
           inkscape:connector-curvature="0" /><path
           d="m 333.637,144.434 v -26.518 c 0,-1.446 0.52,-2.699 1.562,-3.761 1.04,-1.062 2.283,-1.593 3.73,-1.593 1.486,0 2.75,0.531 3.792,1.593 1.04,1.062 1.561,2.315 1.561,3.761 v 26.518 c 0,1.489 -0.521,2.752 -1.561,3.794 -1.042,1.04 -2.306,1.562 -3.792,1.562 -1.447,0 -2.69,-0.522 -3.73,-1.562 -1.042,-1.042 -1.562,-2.305 -1.562,-3.794 m 0,10.646 h 10.645 c 2.89,0 5.376,-1.053 7.459,-3.156 2.082,-2.102 3.123,-4.6 3.123,-7.49 v -26.518 c 0,-2.89 -1.041,-5.385 -3.123,-7.489 -2.083,-2.106 -4.569,-3.157 -7.459,-3.157 h -10.645 c -2.892,0 -5.388,1.042 -7.49,3.124 -2.105,2.082 -3.156,4.59 -3.156,7.522 v 26.518 c 0,2.931 1.051,5.44 3.156,7.524 2.102,2.081 4.598,3.122 7.49,3.122"
           style="fill:#ffffff;fill-opacity:1;fill-rule:nonzero;stroke:none"
           id="path22655"
           inkscape:connector-curvature="0" /><path
           d="m 376.154,112.562 h 5.294 c 1.487,0 2.751,0.531 3.791,1.593 1.042,1.062 1.564,2.315 1.564,3.761 v 26.518 c 0,1.489 -0.522,2.752 -1.564,3.794 -1.04,1.04 -2.304,1.562 -3.791,1.562 h -5.294 z m -10.643,-5.292 v 47.81 h 21.292 c 2.888,0 5.375,-1.053 7.457,-3.156 2.082,-2.102 3.125,-4.6 3.125,-7.49 v -26.518 c 0,-2.89 -1.043,-5.385 -3.125,-7.489 -2.082,-2.106 -4.569,-3.157 -7.457,-3.157 z"
           style="fill:#ffffff;fill-opacity:1;fill-rule:nonzero;stroke:none"
           id="path22657"
           inkscape:connector-curvature="0" /></g></g></g></svg>